<?xml version="1.0" encoding="utf-8"?>
<!-- Generator: Adobe Illustrator 24.2.3, SVG Export Plug-In . SVG Version: 6.00 Build 0)  -->
<svg version="1.1" id="Layer_1" xmlns="http://www.w3.org/2000/svg" xmlns:xlink="http://www.w3.org/1999/xlink" x="0px" y="0px"
	 viewBox="0 0 512 512" style="enable-background:new 0 0 512 512;" xml:space="preserve">
<style type="text/css">
	.st0{fill:#FFFFFF;}
</style>
<g>
	<g>
		<path class="st0" d="M501.3,362.7h-32V128c0-23.5-19.1-42.7-42.7-42.7H85.3c-23.5,0-42.7,19.1-42.7,42.7v234.7h-32
			c-5.9,0-10.7,4.8-10.7,10.7V384c0,23.5,19.1,42.7,42.7,42.7h426.7c23.5,0,42.7-19.1,42.7-42.7v-10.7
			C512,367.4,507.2,362.7,501.3,362.7z M64,128c0-11.8,9.6-21.3,21.3-21.3h341.3c11.8,0,21.3,9.6,21.3,21.3v234.7H309.3H202.7H64
			V128z M469.3,405.3H42.7c-11.8,0-21.3-9.6-21.3-21.3h32h144.9l7.5,7.5c2,2,4.7,3.1,7.5,3.1h85.3c2.8,0,5.5-1.1,7.5-3.1l7.5-7.5
			h144.9h32C490.7,395.8,481.1,405.3,469.3,405.3z"/>
	</g>
</g>
</svg>
