<?xml version="1.0" encoding="utf-8"?>
<!-- Generator: Adobe Illustrator 24.2.3, SVG Export Plug-In . SVG Version: 6.00 Build 0)  -->
<svg version="1.1" id="Capa_1" xmlns="http://www.w3.org/2000/svg" xmlns:xlink="http://www.w3.org/1999/xlink" x="0px" y="0px"
	 viewBox="0 0 100 100" style="enable-background:new 0 0 100 100;" xml:space="preserve">
<style type="text/css">
	.st0{fill:#FFFFFF;}
</style>
<g>
	<path class="st0" d="M79.5,2.9H26.7c-4.4,0-8,2.9-8,6.4v82.6c0,3.5,3.6,6.5,8,6.5h52.7c4.4,0,8-2.9,8-6.4V9.3
		C87.5,5.8,83.9,2.9,79.5,2.9z M44.7,7.5h16.9c0.5,0,1,0.3,1,0.8c0,0.4-0.4,0.8-1,0.8H44.7c-0.5,0-1-0.3-1-0.8
		C43.7,7.9,44.1,7.5,44.7,7.5z M53.1,95.1c-2.2,0-4-1.4-4-3.2c0-1.8,1.8-3.2,4-3.2s4,1.4,4,3.2C57.1,93.7,55.3,95.1,53.1,95.1z
		 M81.9,86.4H24.3V13.1h57.6V86.4z"/>
</g>
</svg>
