<?xml version="1.0" encoding="utf-8"?>
<!-- Generator: Adobe Illustrator 24.2.3, SVG Export Plug-In . SVG Version: 6.00 Build 0)  -->
<svg version="1.1" id="Capa_1" xmlns="http://www.w3.org/2000/svg" xmlns:xlink="http://www.w3.org/1999/xlink" x="0px" y="0px"
	 viewBox="0 0 100 100" style="enable-background:new 0 0 100 100;" xml:space="preserve">
<style type="text/css">
	.st0{fill:#FFFFFF;}
</style>
<g>
	<path class="st0" d="M77.4,5.2H23c-3.4,0-6.2,2.8-6.2,6.2v79c0,3.4,2.8,6.2,6.2,6.2h54.5c3.4,0,6.2-2.8,6.2-6.2v-79
		C83.7,8,80.9,5.2,77.4,5.2z M50.2,94.3c-2,0-3.7-1.6-3.7-3.7c0-2,1.6-3.7,3.7-3.7c2,0,3.7,1.7,3.7,3.7
		C53.9,92.7,52.3,94.3,50.2,94.3z M77.4,83.7H23.1v-71h54.3V83.7z"/>
</g>
</svg>
